<svg xmlns="http://www.w3.org/2000/svg" width="52" height="67" viewBox="0 0 52 67" fill="none"><path d="M15.376 0H23.9718V19.046C23.9718 22.5451 23.0525 25.3947 21.2138 27.595C20.1566 28.8632 18.8082 29.8716 17.1687 30.6203C15.5445 31.369 13.8744 31.7434 12.1583 31.7434C8.74141 31.7434 5.8608 30.5974 3.51648 28.3055C1.17216 26.0135 0 23.2021 0 19.8711C0 16.6471 1.1645 13.8586 3.4935 11.5055C5.8225 9.15249 8.58052 7.97596 11.7676 7.97596C12.2732 7.97596 13.0393 8.0218 14.0659 8.11347V17.5563C13.3611 17.0062 12.6563 16.7312 11.9514 16.7312C11.0627 16.7312 10.2966 17.0597 9.65309 17.7167C9.02487 18.3585 8.71076 19.1377 8.71076 20.0545C8.71076 20.9407 9.04019 21.7047 9.69905 22.3464C10.3579 22.9729 11.147 23.2861 12.0664 23.2861C14.2728 23.2861 15.376 21.7658 15.376 18.7252V0Z" fill="url(#paint0_linear_698_8256)"></path><path d="M39.3938 7.95304C42.6421 7.95304 45.4231 9.12193 47.7368 11.4597C50.0658 13.7822 51.2303 16.5707 51.2303 19.8253C51.2303 23.1257 50.0505 25.9371 47.6908 28.2596C45.3465 30.5821 42.5119 31.7434 39.1869 31.7434C35.862 31.7434 33.0197 30.5821 30.66 28.2596C28.3004 25.9219 27.1206 23.1104 27.1206 19.8253C27.1206 16.4791 28.3004 13.6676 30.66 11.391C33.0197 9.09901 35.9309 7.95304 39.3938 7.95304ZM39.1639 16.4103C38.2446 16.4103 37.4632 16.7465 36.8196 17.4188C36.1761 18.0758 35.8543 18.8856 35.8543 19.8482C35.8543 20.7956 36.1761 21.6054 36.8196 22.2777C37.4785 22.95 38.2599 23.2861 39.1639 23.2861C40.0833 23.2861 40.8647 22.95 41.5083 22.2777C42.1671 21.6054 42.4966 20.7956 42.4966 19.8482C42.4966 18.8856 42.1748 18.0758 41.5313 17.4188C40.8877 16.7465 40.0986 16.4103 39.1639 16.4103Z" fill="url(#paint1_linear_698_8256)"></path><path d="M15.376 66.1454V47.3974C15.376 44.3567 14.2651 42.8364 12.0434 42.8364C11.1394 42.8364 10.3579 43.1573 9.69905 43.799C9.04019 44.4255 8.71076 45.1895 8.71076 46.091C8.71076 46.9925 9.02487 47.7717 9.65309 48.4287C10.2966 49.0858 11.0627 49.4143 11.9514 49.4143C12.6409 49.4143 13.3458 49.1316 14.0659 48.5663V58.0091C13.0546 58.116 12.2885 58.1695 11.7676 58.1695C8.58052 58.1695 5.8225 56.993 3.4935 54.6399C1.1645 52.2868 0 49.4907 0 46.2514C0 42.9204 1.17216 40.109 3.51648 37.817C5.8608 35.5251 8.74141 34.3791 12.1583 34.3791C13.8744 34.3791 15.5445 34.7535 17.1687 35.5022C18.8082 36.2509 20.1566 37.2593 21.2138 38.5275C23.0525 40.7278 23.9718 43.5775 23.9718 47.0765V66.1454H15.376Z" fill="url(#paint2_linear_698_8256)"></path><path d="M41.2555 49.1163V57.9861C40.5506 58.1084 39.9071 58.1695 39.3248 58.1695C35.8773 58.1695 33.0044 57.0388 30.706 54.7774C28.4077 52.516 27.2585 49.6817 27.2585 46.2743C27.2585 42.9586 28.4153 40.1472 30.729 37.84C33.058 35.5327 35.885 34.3791 39.2099 34.3791C42.9179 34.3791 45.8368 35.464 47.9666 37.6337C50.1118 39.7881 51.1843 42.7371 51.1843 46.4806V57.6882H42.5885V47.0994C42.5885 45.8923 42.2897 44.9297 41.6921 44.2116C41.1099 43.4934 40.3208 43.1344 39.3248 43.1344C38.4208 43.1344 37.6394 43.4629 36.9805 44.1199C36.3217 44.7769 35.9922 45.5562 35.9922 46.4577C35.9922 47.405 36.291 48.1843 36.8886 48.7954C37.4862 49.4066 38.2446 49.7122 39.1639 49.7122C39.9147 49.7122 40.6119 49.5136 41.2555 49.1163Z" fill="url(#paint3_linear_698_8256)"></path><defs><linearGradient id="paint0_linear_698_8256" x1="0" y1="33.0727" x2="51" y2="33.0727" gradientUnits="userSpaceOnUse"><stop stop-color="#58C2F1"></stop><stop offset="1" stop-color="#52C5B5"></stop></linearGradient><linearGradient id="paint1_linear_698_8256" x1="0" y1="33.0727" x2="51" y2="33.0727" gradientUnits="userSpaceOnUse"><stop stop-color="#58C2F1"></stop><stop offset="1" stop-color="#52C5B5"></stop></linearGradient><linearGradient id="paint2_linear_698_8256" x1="0" y1="33.0727" x2="51" y2="33.0727" gradientUnits="userSpaceOnUse"><stop stop-color="#58C2F1"></stop><stop offset="1" stop-color="#52C5B5"></stop></linearGradient><linearGradient id="paint3_linear_698_8256" x1="0" y1="33.0727" x2="51" y2="33.0727" gradientUnits="userSpaceOnUse"><stop stop-color="#58C2F1"></stop><stop offset="1" stop-color="#52C5B5"></stop></linearGradient></defs></svg>