<?xml version="1.0" encoding="utf-8"?>
<!-- Generator: Adobe Illustrator 24.2.0, SVG Export Plug-In . SVG Version: 6.00 Build 0)  -->
<svg version="1.1" id="Layer_1" xmlns="http://www.w3.org/2000/svg" xmlns:xlink="http://www.w3.org/1999/xlink" x="0px" y="0px"
	 viewBox="0 0 1000 1000" style="enable-background:new 0 0 1000 1000;" xml:space="preserve">
<style type="text/css">
	.st0{fill:url(#SVGID_1_);}
	.st1{fill:url(#SVGID_2_);}
	.st2{fill:url(#SVGID_3_);}
	.st3{fill:#23201F;}
</style>
<g>
	
		<linearGradient id="SVGID_1_" gradientUnits="userSpaceOnUse" x1="251.2189" y1="251.0379" x2="251.5056" y2="251.0379" gradientTransform="matrix(99.8224 -58.9835 -58.9835 -99.8224 -9811.0479 40443.4023)">
		<stop  offset="0" style="stop-color:#909CA9"/>
		<stop  offset="1" style="stop-color:#EEEDED"/>
	</linearGradient>
	<path class="st0" d="M627.5,394.8l-79.1,25.8L479.5,451l-19.3,5.1c-4.9,4.7-10,9.4-15.6,14.2c-6.1,5.3-11.8,10.1-16.2,13.5
		c-4.8,3.8-12,11-15.7,15.6c-5.4,6.8-9.8,14.1-11.6,19.6c-3.3,10.1-1.7,20.2,4.7,29.6c8.1,12,24.3,24.2,43.3,32.5
		c9.6,4.2,25.8,9.7,38,12.7c20.3,5.1,59.5,10.7,81.1,11.5c4.4,0.2,10.2,0.2,10.5,0c0.5-0.3,3.8-6.7,7.7-14.7
		c13.3-27.1,22.9-52.5,28.1-74.2c3.1-13.2,5.6-30.7,7.2-51.4c0.4-5.8,0.6-25.2,0.2-31.8c-0.5-10.8-1.5-19.5-3-28.1
		c-0.2-1.3-0.3-2.4-0.2-2.5c0.2-0.2,1-0.4,10.7-3.2L627.5,394.8L627.5,394.8L627.5,394.8L627.5,394.8z M609.5,405.4
		c0.7,0,2.6,18.4,3.1,30c0.1,2.5,0.1,4.1-0.1,4.1c-0.5,0-10.1-5.7-17-10c-6-3.8-17.3-11.3-19.1-12.7c-0.6-0.4-0.5-0.5,4.4-2.2
		C589.1,411.7,608.8,405.4,609.5,405.4z M569.2,418.7c0.5,0,1.9,0.8,5.2,2.8c12.3,7.7,29.1,17,36.3,20.2c2.2,1,2.5,0.6-2.6,4.1
		c-10.9,7.4-24.5,14.7-41.1,22.1c-2.9,1.3-5.4,2.3-5.4,2.3c-0.1,0,0.2-1.5,0.7-3.3c4-14.9,6.3-30,6.4-42.1
		C568.6,418.8,568.6,418.8,569.2,418.7C569,418.7,569.1,418.7,569.2,418.7z M560.8,421.8c0.4,0.4,0.1,13.8-0.4,17.4
		c-1.1,8.7-2.8,16.9-5.5,26c-0.7,2.2-1.3,4.1-1.4,4.2c-0.2,0.3-8.4-7.7-11.1-10.8c-4.7-5.4-8.3-10.8-11-16c-1.4-2.7-3.5-8-3.4-8.1
		C529.1,433.8,560.6,421.6,560.8,421.8z M521.7,437.2c0.1,0,0.1,0,0.2,0.1c0.1,0.1,0.5,1.1,0.9,2.2c1.9,5.2,6.2,12.9,9.9,17.8
		c4.1,5.4,9.4,11.1,13.8,14.9c1.4,1.2,2.8,2.3,2.9,2.5c0.4,0.4,0.5,0.3-9.3,4c-11.3,4.3-23.6,8.6-37.7,13.2
		c-3.4,1.1-6.7,2.2-10.1,3.3c-0.5,0.2-0.4-0.1,1.2-2.6c7-10.9,17.6-32.4,23.6-47.6c1-2.6,2-5.3,2.2-5.9c0.2-0.8,0.5-1.1,1.3-1.6
		C521.1,437.3,521.5,437.2,521.7,437.2z M509.8,442.2c0.2,0.1-2.9,6.5-5.9,12.4c-5.8,11.3-12.1,22.4-20.6,36c-1.4,2.3-2.8,4.5-3,4.7
		c-0.3,0.4-0.4,0.3-1.4-1.6c-2-4-3.7-9.2-4.6-13.9c-0.9-4.7-0.7-12.8,0.3-17.8c0.8-3.7,0.7-3.6,2.5-4.5
		C484.8,453.5,509.5,441.9,509.8,442.2z M612.9,446.4v2.5c0,13.3-1.4,31.6-3.5,45c-0.4,2.3-0.7,4.2-0.7,4.3c0,0-1.7-0.5-3.8-1.1
		c-9-2.8-18.7-6.9-27.5-11.8c-5.8-3.2-14.2-8.4-14-8.6c0.1-0.1,2.6-1.4,5.5-2.9c11.7-6.1,23-12.7,32.7-19.2
		c3.6-2.5,9.2-6.4,10.3-7.5L612.9,446.4z M464.6,464.1c0.2,0,0.2,0.5-0.2,2.6c-0.2,1.6-0.5,4.4-0.7,6.4c-0.5,8.7,1,15.2,5.3,24
		c1.2,2.5,2.2,4.5,2.1,4.5c-0.4,0.4-40,12-52.5,15.4c-3.7,1-6.9,1.9-7.2,2c-0.4,0.1-0.5,0.1-0.3-1c1.4-8.8,8.1-20.3,17.4-30
		c6.2-6.5,11.2-10.2,19.7-15.1c6.1-3.5,15.5-8.7,16.2-8.9C464.5,464.1,464.5,464.1,464.6,464.1z M557.9,480.8
		c0.1-0.1,1.5,0.7,3.2,1.7c12.8,7.4,30.6,14.3,45.8,17.8l1.4,0.3l-1.9,1.1c-8,4.4-34.1,15.3-60.8,25.3c-3.9,1.4-7.7,2.9-8.4,3.2
		c-0.7,0.3-1.4,0.5-1.4,0.4c0-0.1,1.1-2.2,2.5-4.7c7.5-14,15-31,18.8-42.9C557.6,481.8,557.9,480.8,557.9,480.8L557.9,480.8z
		 M548.4,483.9c0.1,0.1-0.4,1.3-1,2.8c-5.2,12.6-12,26.4-20.8,41.8c-2.2,3.9-4.1,7.1-4.1,7.1c-0.1,0-1.9-1.1-4-2.4
		c-12.7-7.8-23.9-17.3-31.3-26.6l-1.1-1.3l5.4-1.5c19.5-5.3,36.1-11.1,52.5-18.1C546.4,484.6,548.3,483.9,548.4,483.9z M607.5,504.5
		C607.5,504.5,607.6,504.6,607.5,504.5c0.1,1.4-3,13.7-5.5,22.6c-2.1,7.5-3.9,13.3-7.2,23.7c-1.4,4.5-2.7,8.3-2.8,8.3
		c-0.1,0-0.4-0.1-0.8-0.2c-17.8-3.2-33.7-7.7-48.6-13.7c-4.2-1.7-10.2-4.4-10.5-4.7c-0.1-0.1,3.5-1.8,8-3.8
		c27.2-11.9,55.5-25.4,65.1-31.2C606.4,504.9,607.3,504.5,607.5,504.5z M471.1,509.2c0.1,0.1-7.5,11.1-18.1,26
		c-3.7,5.2-8,11.3-9.6,13.6c-1.6,2.3-4.1,5.9-5.4,8l-2.5,3.9l-2.7-2.3c-3.2-2.6-8.7-8.3-11.1-11.4c-5.1-6.4-8.6-13.2-10-19.3
		c-0.7-2.9-0.7-4.3-0.1-4.5c0.9-0.2,16.9-4,31.8-7.5c8.3-1.9,17.9-4.2,21.4-5C468.2,509.8,471,509.2,471.1,509.2z M478.7,512.1
		l1.9,2.2c8.6,9.6,17.4,16.8,28.1,23c1.9,1.1,3.4,2,3.2,2.1c-0.4,0.3-37,13.3-53.9,19.1c-9.5,3.3-17.3,6-17.4,6
		c-0.1,0-0.6-0.4-1.2-0.8l-1.1-0.8l1.7-2.5c5.6-8.1,12.7-17,28.1-35.6L478.7,512.1L478.7,512.1z M526.4,546.3
		c0.1-0.1,2.7,0.9,5.9,2.1c7.8,2.9,13.9,4.8,22.2,6.9c10.2,2.6,24.9,5.1,33.6,5.8c1.3,0.1,2,0.2,1.8,0.4c-0.4,0.2-9.2,3.2-15.7,5.2
		c-10.3,3.2-41.7,12.5-67.3,19.9c-4.7,1.4-8.8,2.5-9,2.6c-0.6,0.1-2.6-0.4-2.6-0.7c0-0.1,1.4-2,3.2-4c8.6-10.3,17.2-21.8,24.3-32.7
		C524.8,548.8,526.4,546.3,526.4,546.3z M515.9,546.6c0.1,0.1-4.2,6.9-11.6,18.6c-3.2,5-6.7,10.6-8,12.6c-1.2,1.9-3,4.9-4,6.6
		l-1.7,3.1l-0.9-0.2c-2.2-0.6-17.3-5.9-21.3-7.5c-5-2-10.1-4.4-13.9-6.4c-4.8-2.6-10.8-6.4-10.3-6.5c0.1-0.1,8.3-2.3,18.2-5
		c26.2-7.1,40.7-11.2,50.3-14.2C514.4,546.9,515.9,546.5,515.9,546.6z M590.4,564L590.4,564c0.3,0.6-9.4,27.5-12.9,36
		c-0.8,1.9-1.1,2.4-1.5,2.3c-1-0.1-15.1-2-23.6-3.3c-14.9-2.3-39.9-6.6-46.2-8.1l-1.4-0.3l8.9-2c19.1-4.3,28.4-6.6,37.7-9.5
		c11.8-3.6,23.5-8.1,35.2-13.6C588.4,564.7,590,564.1,590.4,564z"/>
	
		<linearGradient id="SVGID_2_" gradientUnits="userSpaceOnUse" x1="250.7352" y1="242.3176" x2="251.0219" y2="242.3176" gradientTransform="matrix(80.3196 0 0 -80.3196 -19679.1758 19710.5684)">
		<stop  offset="0" style="stop-color:#949FAB"/>
		<stop  offset="1" style="stop-color:#DCDEE1"/>
	</linearGradient>
	<path class="st1" d="M545.9,210.3c-1.3-0.2-22.6,7.5-36.3,13c-18.5,7.5-32.8,14.7-41.7,20.9c-3.3,2.3-7.4,6.5-8.1,8.1
		c-0.2,0.6-0.4,1.3-0.4,2l8,7.6l19.1,6.1l45.4,8.1l51.9,8.9l0.5-4.5c-0.2,0-0.3-0.1-0.5-0.1l-6.8-1.1l-1.4-2.5
		c-7.1-12.4-14.8-27.9-19.4-38.3c-3.5-8.1-6.9-17.4-8.7-24.1C546.7,210.6,546.6,210.4,545.9,210.3L545.9,210.3L545.9,210.3
		L545.9,210.3z M545,213.3L545,213.3c0.1,0.1,0.4,1.7,0.6,3.7c1,8.4,2.9,16.5,5.8,25.2c2.2,6.6,2.2,6.2-0.4,5.4
		c-6.1-1.7-33.4-6.4-53.2-9.2c-3.2-0.4-5.9-0.8-5.9-0.9c-0.2-0.2,14.3-7.8,20.7-10.8C520.8,223,543.3,213.6,545,213.3z M487.3,240.1
		l2.3,0.8c12.7,4.3,44.6,10.4,62.2,11.8c2,0.2,3.6,0.4,3.7,0.4c0.1,0.1-1.6,1-3.8,2c-8.5,4.2-17.8,9.5-24.3,13.5
		c-1.9,1.2-3.6,2.2-3.9,2.2c-0.2,0-1.5-0.2-2.8-0.4l-2.4-0.4l-6-5.9c-10.5-10.2-18.8-18.1-22-21.1L487.3,240.1z M484.9,242l8.4,10.5
		c4.6,5.8,9.3,11.5,10.3,12.7c1,1.3,1.9,2.3,1.8,2.3c-0.2,0.2-12.2-2.2-18.5-3.6c-6.5-1.5-9.2-2.2-13.2-3.5l-3.3-1.1v-0.8
		c0.1-4,5.1-10,13.8-16.1L484.9,242z M556.6,256.4c0.2,0,0.5,0.5,1.3,2.2c2,4.5,8.4,16.6,9.9,18.9c0.5,0.8,1.3,0.8-7.1-0.5
		c-20.3-3.3-26.8-4.4-26.8-4.5c0-0.1,0.6-0.5,1.4-0.9c6.3-3.5,12.6-7.9,18.2-12.6c1.4-1.1,2.6-2.2,2.9-2.4
		C556.4,256.4,556.5,256.3,556.6,256.4z"/>
	
		<radialGradient id="SVGID_3_" cx="251.683" cy="251.8593" r="0.2867" gradientTransform="matrix(-102.4055 -15.3824 -31.1105 204.8109 34185.168 -47358.8398)" gradientUnits="userSpaceOnUse">
		<stop  offset="0" style="stop-color:#EF392D"/>
		<stop  offset="1" style="stop-color:#A91F24"/>
	</radialGradient>
	<path class="st2" d="M460.3,251.5c0,0-1.3,2.1-0.1,5.2c0.8,1.9,3.1,4.2,5.6,6.6c0,0,26.6,26,29.9,29.7c14.7,17,21.1,33.7,21.7,56.8
		c0.4,14.8-2.5,27.9-9.5,43c-12.4,27.2-38.7,57.1-79.2,90.4l5.9-2c3.8-2.9,9-5.9,21.2-12.6c28.2-15.4,59.9-29.6,98.8-44.2
		c56-21.1,148.1-45.7,200.5-53.7l5.4-0.8l-0.8-1.3c-4.8-7.4-8.1-12-12-16.9c-11.5-14.2-25.4-25.8-42.5-35.4
		c-23.4-13.1-53.8-23.3-92.2-30.9c-7.2-1.4-23.2-4.2-36.1-6.2c-27.4-4.2-45.1-7.2-64.6-10.5c-7-1.2-17.5-3-24.4-4.5
		c-3.6-0.8-10.5-2.4-15.9-4.2C467.9,258.3,461.7,256.6,460.3,251.5z M475.8,266.5c0.1-0.1,1,0.3,2.3,0.7c2.3,0.8,5.2,1.7,8.7,2.6
		c2.6,0.7,5.3,1.4,7.9,2.1c3.6,0.9,6.6,1.7,6.6,1.7c0.4,0.4,6.5,19.7,8.5,27.2c0.8,2.8,1.4,5.2,1.3,5.2c-0.1,0.1-0.7-1-1.5-2.3
		c-7-12.3-18.1-24.8-30.9-34.9C477,267.6,475.8,266.5,475.8,266.5z M505.2,274.6c0.3,0,1.6,0.2,3.2,0.5c10.2,2.3,28.4,5.7,40.1,7.7
		c2,0.3,3.5,0.7,3.5,0.8c0,0.1-0.7,0.5-1.6,1c-2,1-9.9,5.7-12.6,7.5c-6.6,4.4-12.6,9.2-16.9,13.5c-1.7,1.7-3.2,3.2-3.2,3.2
		s-0.4-1-0.7-2.3c-2.2-8.3-6.6-20.6-10.7-29.3C505.7,275.9,505.1,274.7,505.2,274.6C505.1,274.7,505.1,274.6,505.2,274.6
		L505.2,274.6z M557,284.5c0.4,0.1,1,2.2,2.2,6.6c2.2,8.7,3.2,18.4,2.9,27.4c-0.1,2.5-0.2,4.8-0.4,5.1l-0.2,0.6l-3.1-1
		c-6.4-2-16.8-5.1-25.7-7.6c-5.1-1.4-9.2-2.6-9.2-2.8c0-0.4,7.4-7.8,10.6-10.6C540.1,297,556.5,284.3,557,284.5z M561.1,285.1
		c0.2-0.2,24.8,4.1,36,6.2c8.3,1.6,20.4,4.1,21.1,4.4c0.4,0.1-0.9,0.8-4.9,2.6c-15.8,7.1-27.5,13.5-39.2,21.3
		c-3.1,2-5.6,3.7-5.7,3.7s-0.1-1.7-0.1-3.8c0-11.4-2.3-22.9-6.5-32.5C561.4,286,561.1,285.1,561.1,285.1z M624.7,297.6
		c0.2,0.2-0.6,5-1.3,7.9c-2.2,8.9-8,22.1-15.1,34.6c-1.3,2.2-2.4,4-2.5,4.1c-0.1,0.1-1.7-0.8-3.6-1.9c-6.9-4.1-14.8-7.9-23.5-11.5
		c-2.4-1-4.5-1.9-4.5-2c-0.4-0.4,18.8-13.1,29-19.2C611.3,304.7,624.5,297.4,624.7,297.6z M629.3,298.4c0.5,0,11.4,3,17.1,4.7
		c14.1,4.2,30.2,10.1,40.7,14.9l4.4,2l-3.1,0.7c-25.7,5.9-47.7,12.7-69,21.4c-1.7,0.7-3.3,1.3-3.4,1.3c-0.1,0,0.5-1.4,1.3-3.1
		c6.4-13.6,10.5-27.8,11.5-39.8C628.9,299.3,629.1,298.4,629.3,298.4L629.3,298.4z M520.9,323.2c0.2-0.2,8.5,1.8,13,3
		c6.8,1.9,21.3,6.8,21.3,7.1c0,0.1-1.6,1.4-3.5,3.1c-7.8,6.5-15.4,13.4-24.4,22.1c-2.7,2.6-5,4.7-5.1,4.7c-0.1,0-0.2-0.4-0.1-0.8
		c1.4-10.1,1.1-23-0.8-36.1C521,324.7,520.8,323.3,520.9,323.2z M695.6,323.4c0.1,0.1-3.8,6.3-6.3,9.9c-3.6,5.1-8.9,12-20.8,26.9
		c-6.3,7.9-13.3,16.8-15.7,19.8c-2.4,3-4.4,5.5-4.4,5.5c-0.1,0-0.8-1.1-1.7-2.4c-6.7-10.1-14.7-18.8-24.2-26.7
		c-1.8-1.5-3.8-3.1-4.4-3.6c-0.7-0.5-1.2-1-1.2-1c0-0.2,10.2-4.5,17.9-7.7c13.5-5.5,31.9-12.1,45.8-16.3
		C687.8,325.5,695.5,323.3,695.6,323.4z M700.2,324.6c0.2-0.1,1.7,0.7,3.4,1.7c14.5,8.3,28.8,19,40,30c3.2,3.1,11,11.2,10.9,11.3
		c0,0-2.8,0.2-6,0.5c-25.2,1.9-57.4,7.2-88.4,14.7c-2.1,0.5-3.9,0.9-4.1,0.9c-0.1,0,2.2-2.3,5.1-5.1c18.2-17.5,26.5-28.6,36.3-48.3
		C698.9,327.3,700.1,324.8,700.2,324.6C700.2,324.6,700.2,324.6,700.2,324.6z M567,338.3c0.8,0.2,8.6,3.8,14.5,6.8
		c5.4,2.7,13.5,7,13.9,7.4c0.1,0.1-2.8,1.6-6.3,3.3c-11.2,5.6-20.9,10.9-30.9,17c-2.9,1.7-5.3,3.2-5.3,3.2c-0.2,0-0.2-0.2,1.4-3.2
		c5.4-9.8,9.7-21.5,12.1-33C566.6,338.9,566.8,338.3,567,338.3z M559.2,339.7c0.2,0.2-1.9,7.5-3.1,11.5c-2.5,7.6-6.6,17.1-10.6,24.3
		c-1,1.7-2.4,4.1-3.2,5.5l-1.5,2.4l-3.4-3.2c-3.9-3.8-7.1-6.1-11.1-8.2c-1.6-0.8-2.9-1.6-2.9-1.7c0-0.5,10.2-9.8,18.1-16.5
		C547.2,349,559,339.5,559.2,339.7z M606.8,359.3l2.9,1.9c6.7,4.4,14.6,10.2,20.6,15.3c3.4,2.8,10,8.7,11.3,10.2l0.7,0.8l-4.8,1.4
		c-27.4,7.6-48.6,14.4-73.3,23.5c-2.8,1-5.1,1.9-5.3,1.9c-0.4,0-0.7,0.3,5.5-5.4c15.8-14.5,29.8-30.6,40.2-46.2L606.8,359.3z
		 M594.3,362.4c0.1,0.1-8.1,11.7-13,18.2c-5.9,7.8-16.3,20.8-23.5,29.3c-3,3.5-5.6,6.5-5.7,6.5c-0.2,0.1-0.2-0.8-0.2-2.2
		c0-7.2-1.9-15-5.1-21.5c-1.4-2.8-1.6-3.4-1.3-3.7c1.1-1,18.5-10.9,29.6-16.9C582.5,368.1,594.1,362.2,594.3,362.4L594.3,362.4z
		 M518.7,380.9c0.2,0,1.6,0.7,3.1,1.6c3.8,2.1,7.2,4.4,10.3,6.9c0.1,0.1-1.4,1.4-3.5,2.9c-5.7,4.1-14.3,10.6-19.3,14.6
		c-5.3,4.2-5.4,4.3-4.8,3.4c3.9-6,5.9-9.5,8-13.8c1.9-3.9,3.7-8.5,5-12.5C518,382.2,518.6,380.9,518.7,380.9z M538.8,396.7
		c0.3-0.1,0.7,0.5,2.3,2.9c3.4,5.1,6,11.9,6.7,17.4l0.1,1.2l-8.2,3.2c-14.7,5.7-28.2,11.3-37.3,15.5c-2.6,1.2-7.1,3.4-10,4.8
		c-2.9,1.5-5.3,2.6-5.3,2.6c0-0.1,1.9-1.4,4.1-3.1c17.9-13,33.4-27.2,45-41.5c1.3-1.5,2.4-2.9,2.5-2.9L538.8,396.7L538.8,396.7z
		 M529.6,399c0.2,0.2-6.6,8-11.2,12.7c-11.5,11.8-23,21-37.1,30c-1.8,1.1-3.4,2.2-3.6,2.3c-0.4,0.2,0.1-0.4,6.3-7.1
		c3.9-4.2,6.9-7.8,10.3-12.3c2.3-2.9,2.7-3.3,6-5.7C509,412.5,529.3,398.7,529.6,399z"/>
	<path class="st3" d="M270.5,646.7c-1.1,0-2.2,0.1-3.3,0.1c-22.3,1.2-37.3,11-46.1,30.2c-7.5,17.3-6.7,40,0.1,57.4
		c7.9,17,20.6,26,41.9,29.4c4.5,0.7,7.5,3.2,16.2,13.4l10.7,12.6h19.4l-12.9-13c-7.1-7.1-12.9-13.4-12.9-13.9s2.7-1.7,6-2.8
		c10.9-3.3,20-11.7,26.3-24.7c5.1-10.4,5.9-13.6,6.6-26.5C324.5,670.4,304.2,646.4,270.5,646.7L270.5,646.7z M287.6,747.2
		c-9.5,4.6-23.2,5.5-32.2,2.2c-9.3-3.4-18.3-13-22.3-23.9c-4.5-11.9-3.8-33.9,1.3-43.8c8.3-15.8,19.2-23,35.1-23
		c23.7,0,37.1,14.5,38.9,41.7C309.8,723,302.1,740.1,287.6,747.2L287.6,747.2z M623.6,679.5c-8.2,0-14.4,3.3-18.6,9.8l-3.3,5.2
		v-13.4h-14.1v80.3h14.1v-25.7c0-23.5,0.3-26.2,3.6-32.6c4.5-8.8,12.3-13.2,19.8-11.1l5,1.5v-13.9L623.6,679.5L623.6,679.5
		L623.6,679.5z M540.6,678.8c-2.8,0-5.7,0.4-8.6,1c-18.9,4.9-29.5,23-28.9,41.6c0,15.6,3,23.4,10.5,31.5
		c15.4,12.6,29.3,13.6,48.1,6.9c3.2-1.4,6.7-2.9,6.7-2.9v-12.6l-6.7,3.5c-15.2,6.6-26.7,6.6-35.9-1.2c-5.9-6-8.4-13.1-9.6-21.3h56.9
		v-10.8C573.2,692.4,559.9,678.4,540.6,678.8L540.6,678.8L540.6,678.8z M517.6,714c0,0,2.1-13.8,9.9-19.2c3.8-2.6,8.1-3.9,12.3-3.9
		c4.2,0,8.4,1.4,11.9,4c7.1,5.5,8.3,19,8.3,19h-42.5L517.6,714L517.6,714z M177.2,699.5c-15.3-9.3-22.1-16-21.3-23.8
		c2.4-21.8,29.3-18.8,44.3-10.5l0.1-14.7c0,0-8.3-3.6-20.1-3.8c-18.1-0.3-29.9,5.7-35.4,17.8c-8.1,17.9-0.9,31.4,24.9,46.4
		c14.5,8.4,20.9,15.8,20.9,23.8c0,16.5-19.9,22.3-40.4,11.9c-4.2-2.1-7.8-3.9-8-3.9c-0.7,4.7-0.4,15.9-0.4,15.9s6.3,2.6,15.8,4.5
		c23.5,4.7,44.8-6.3,46.8-24.2C206.2,722,200.2,713.2,177.2,699.5L177.2,699.5z M748.5,678.6c-2.8,0-5.7,0.4-8.7,1
		c-18.9,4.9-29.5,23-28.8,41.6c0,15.6,3,23.3,10.5,31.4c15.4,12.6,29.3,13.7,48.2,6.9c3.2-1.4,6.7-2.9,6.7-2.9V744l-6.7,3.5
		c-15.2,6.6-26.7,6.6-35.9-1.2c-5.9-6-8.4-13-9.6-21.3h56.8v-10.8C781.1,692.2,767.8,678.2,748.5,678.6L748.5,678.6z M725.5,713.8
		c0,0,2.1-13.8,9.9-19.3c3.7-2.7,8.1-3.9,12.3-3.9c4.2,0,8.4,1.4,11.9,4c7.1,5.5,8.3,19.1,8.3,19.1L725.5,713.8L725.5,713.8
		L725.5,713.8z M466.7,699.7c-15.3-9.3-22.1-16-21.3-23.8c2.4-21.8,29.3-18.8,44.3-10.5l0.1-14.7c0,0-8.3-3.6-20.1-3.7
		c-18.1-0.3-29.9,5.7-35.4,17.8c-8.1,17.9-0.8,31.4,24.9,46.4c14.5,8.4,20.9,15.7,20.9,23.7c0,16.5-19.9,22.4-40.4,11.9
		c-4.2-2.1-7.8-3.8-8-3.8c-0.7,4.7-0.4,15.9-0.4,15.9s6.2,2.6,15.7,4.5c23.5,4.7,44.9-6.3,46.9-24.2
		C495.7,722.3,489.6,713.5,466.7,699.7L466.7,699.7L466.7,699.7z M831.5,679.3c-8.2,0-14.5,3.3-18.6,9.8l-3.3,5.1v-13.4h-14.1v80.3
		h14.1v-25.7c0-23.5,0.3-26.2,3.6-32.6c4.5-8.8,12.3-13.2,19.8-11.1l5,1.5v-14L831.5,679.3L831.5,679.3z M354.4,699.2v-51.2h-14.2
		v113.3H400V748h-45.6L354.4,699.2L354.4,699.2z M683.6,715.2l-11.7,30.5L660.6,715l-11.5-34h-14.6c9.4,26.8,19.7,54,30.1,80.4
		c4.5,0.1,9,0,13.5,0l15.8-39.8l16.1-40.6h-13.9C696.2,681,690,697.1,683.6,715.2L683.6,715.2z M387.2,617.2c2.3,0,4.2-0.7,5.8-2.3
		c1.6-1.6,2.4-3.4,2.4-5.7c0-2.3-0.8-4.2-2.4-5.7c-1.6-1.5-3.4-2.2-5.7-2.2c-2.3,0-4.2,0.7-5.8,2.3c-1.6,1.6-2.3,3.5-2.3,5.7
		c0,2.3,0.7,4.2,2.3,5.7C383,616.4,384.9,617.2,387.2,617.2L387.2,617.2z M382.2,604.1c1.4-1.4,3-2,5.2-2c2,0,3.7,0.6,5,2
		c1.4,1.4,2.1,3,2.1,5c0,2-0.7,3.8-2.1,5.1c-1.4,1.4-3,2-5,2c-2,0-3.7-0.6-5-2c-1.4-1.4-2.1-3.1-2.1-5.1
		C380.2,607.2,380.8,605.5,382.2,604.1z M385.6,609.9h0.9c0.7,0,1.3,0.6,1.8,1.8l1.1,2.5h1.7l-1.4-2.8c-0.6-1.1-1.1-1.7-1.7-1.9
		c0.8-0.2,1.5-0.5,1.9-1c0.5-0.5,0.6-1.1,0.6-1.8c0-0.8-0.3-1.5-0.8-1.9c-0.6-0.5-1.6-0.8-2.9-0.8h-2.9v10.3h1.5v-4.3L385.6,609.9z
		 M385.6,605.2h1.3c0.9,0,1.6,0.2,1.9,0.5c0.3,0.3,0.4,0.6,0.4,1.3c0,1.2-0.7,1.7-2.1,1.7h-1.6L385.6,605.2L385.6,605.2z M150.4,609
		c0-3.6-0.1-6.2-0.2-7.8h0.1c0.4,1.8,0.8,3.2,1.2,4.1l13.7,30.5h2.3l13.7-30.8c0.4-0.8,0.7-2.1,1.2-3.9h0.1c-0.3,3-0.4,5.7-0.4,7.8
		V636h4.7v-40.1h-5.9l-12.6,27.9c-0.5,1.1-1.1,2.8-1.9,4.9h-0.2c-0.3-1.1-0.9-2.7-1.8-4.8l-12.3-28.1h-6.2v40.1h4.5L150.4,609
		L150.4,609z M197,609.1h4V634h-4V609.1z M199,599.9c0.8,0,1.6-0.3,2.1-0.8c0.6-0.5,0.9-1.3,0.9-2.1c0-0.8-0.3-1.6-0.9-2.1
		c-0.6-0.6-1.3-0.8-2.1-0.8c-0.8,0-1.6,0.3-2.1,0.8c-0.6,0.5-0.9,1.3-0.9,2.1c0,0.9,0.3,1.6,0.9,2.1
		C197.5,599.7,198.2,599.9,199,599.9L199,599.9z M229.8,634.6v-4.4c-2.2,1.7-4.6,2.5-7,2.5c-2.9,0-5.3-1-7.1-2.9
		c-1.7-1.9-2.7-4.6-2.7-7.9c0-3.5,0.9-6.2,2.8-8.3c1.8-2,4.2-3,7.2-3c2.4,0,4.7,0.7,6.8,2.2V608c-1.9-1-4.1-1.5-6.6-1.5
		c-4.6,0-8.2,1.5-10.8,4.3c-2.6,2.8-4,6.7-4,11.4c0,4.1,1.2,7.6,3.7,10.3c2.6,2.7,5.9,4.1,9.9,4.1
		C225,636.5,227.6,635.9,229.8,634.6z M241.4,621.3c0-3.3,0.7-6,2.1-7.8c1.3-1.6,2.8-2.5,4.7-2.5c1.6,0,2.7,0.3,3.5,0.9v-4.8
		c-0.6-0.3-1.5-0.4-2.7-0.4c-1.7,0-3.1,0.6-4.4,1.6c-1.4,1.1-2.5,2.7-3.1,4.8h-0.1v-5.9h-4.6V636h4.6L241.4,621.3L241.4,621.3z
		 M267.7,636.5c4.3,0,7.8-1.4,10.4-4.1c2.6-2.7,3.8-6.4,3.8-11c0-4.7-1.2-8.3-3.6-10.9c-2.4-2.7-5.7-3.9-10-3.9
		c-4.3,0-7.8,1.3-10.4,3.8c-2.8,2.7-4.2,6.6-4.2,11.5c0,4.3,1.2,7.9,3.7,10.5C260,635.1,263.4,636.5,267.7,636.5L267.7,636.5z
		 M261.2,613.2c1.7-1.8,4-2.8,6.9-2.8c2.9,0,5.2,0.9,6.8,2.8c1.7,1.9,2.5,4.7,2.5,8.3c0,3.5-0.7,6.2-2.3,8.1
		c-1.6,1.9-3.8,2.9-6.9,2.9c-2.9,0-5.2-1-7-2.9c-1.7-1.9-2.6-4.6-2.6-8.1C258.4,618.1,259.3,615.3,261.2,613.2z M301.9,634
		c1.7-1.6,2.7-3.5,2.7-5.9c0-2.1-0.7-3.8-2.1-5.2c-1.1-1.1-2.8-2.1-5.3-3.1c-2.2-0.9-3.6-1.7-4.3-2.4c-0.7-0.7-1.2-1.6-1.2-2.9
		c0-1.2,0.5-2.1,1.4-2.8c0.9-0.7,2.1-1.1,3.7-1.1c2.5,0,4.6,0.7,6.5,2V608c-1.9-0.9-3.9-1.4-6.2-1.4c-2.9,0-5.4,0.8-7.3,2.4
		c-1.9,1.6-2.8,3.6-2.8,6c0,2.1,0.6,3.8,1.8,5.1c1,1.1,2.7,2.2,5.1,3.2c2.3,1,3.8,1.9,4.7,2.7c0.8,0.7,1.2,1.7,1.2,2.7
		c0,2.7-1.8,4-5.4,4c-2.8,0-5.2-0.9-7.4-2.7v4.9c2,1.2,4.4,1.7,7,1.7C297.4,636.5,300.1,635.7,301.9,634L301.9,634z M323.8,606.5
		c-4.3,0-7.8,1.3-10.4,3.8c-2.7,2.7-4.2,6.6-4.2,11.5c0,4.3,1.2,7.9,3.7,10.5c2.6,2.8,6,4.1,10.3,4.1c4.4,0,7.8-1.4,10.4-4.1
		c2.6-2.7,3.9-6.4,3.9-11c0-4.7-1.2-8.3-3.6-10.9C331.3,607.8,328,606.5,323.8,606.5L323.8,606.5z M332.7,621.6
		c0,3.5-0.7,6.2-2.3,8.1c-1.6,1.9-3.8,2.9-6.9,2.9c-2.9,0-5.2-1-7-2.9c-1.7-1.9-2.6-4.6-2.6-8.1c0-3.7,0.9-6.5,2.8-8.4
		c1.7-1.8,4-2.8,6.9-2.8c2.8,0,5.1,0.9,6.8,2.8C331.8,615.1,332.7,617.9,332.7,621.6L332.7,621.6z M345.1,635.9h4.6v-24.8h6.7v-3.8
		h-6.7v-4.4c0-4,1.6-6,4.8-6c1.1,0,2.2,0.3,3,0.7v-4.1c-0.8-0.4-1.9-0.5-3.3-0.5c-2.5,0-4.5,0.7-6.1,2.3c-1.9,1.8-2.9,4.2-2.9,7.4
		v4.7h-4.8v3.8h4.8L345.1,635.9L345.1,635.9z M363.8,628.1c0,5.6,2.5,8.4,7.5,8.4c1.8,0,3.2-0.3,4.3-0.9v-3.9
		c-0.8,0.6-1.8,0.9-2.9,0.9c-1.6,0-2.6-0.4-3.3-1.2c-0.7-0.8-1-2.2-1-4.1v-16.1h7.3v-3.8h-7.3v-8.4c-1.6,0.5-3.1,1-4.6,1.5v7h-4.9
		v3.8h4.9L363.8,628.1L363.8,628.1z M855.9,680.8c-1.6-1.5-3.4-2.2-5.7-2.2c-2.3,0-4.2,0.7-5.8,2.3c-1.6,1.5-2.3,3.5-2.3,5.7
		c0,2.3,0.7,4.2,2.3,5.7c1.6,1.5,3.5,2.2,5.8,2.2c2.3,0,4.2-0.7,5.8-2.3c1.5-1.6,2.4-3.4,2.4-5.7
		C858.2,684.2,857.4,682.3,855.9,680.8L855.9,680.8z M855.1,691.6c-1.4,1.4-3,2-5,2c-2,0-3.7-0.6-5-2c-1.4-1.4-2.1-3.1-2.1-5.2
		c0-2,0.6-3.7,2-5c1.4-1.4,3-2,5.1-2c2,0,3.7,0.6,5,2c1.4,1.4,2.1,3,2.1,5C857.2,688.6,856.6,690.2,855.1,691.6z M851,686.9
		c0.8-0.2,1.5-0.6,1.9-1c0.5-0.5,0.6-1.1,0.6-1.8c0-0.8-0.3-1.5-0.8-1.9c-0.6-0.5-1.7-0.8-2.9-0.8h-2.9v10.3h1.5v-4.3h0.9
		c0.6,0,1.3,0.6,1.8,1.8l1.1,2.5h1.7l-1.4-2.8C852.1,687.6,851.6,687.1,851,686.9L851,686.9L851,686.9z M850,686h-1.6v-3.5h1.3
		c0.9,0,1.6,0.2,1.9,0.5c0.4,0.3,0.5,0.6,0.5,1.3C852.1,685.5,851.4,686,850,686L850,686z M594.2,606.1h1.3v-10.3h3.4v-1.3h-8.1v1.3
		h3.4L594.2,606.1L594.2,606.1z M602,598.4c0-1,0-1.8-0.1-2.3c0.1,0.5,0.3,0.9,0.4,1.2l3.9,8.8h0.6l4-8.9c0.1-0.3,0.2-0.6,0.4-1.1
		c-0.1,0.9-0.1,1.6-0.1,2.2v7.8h1.4v-11.5h-1.7l-3.6,8c-0.1,0.3-0.4,0.8-0.5,1.5h-0.1c-0.1-0.4-0.3-0.7-0.5-1.4l-3.6-8.1h-1.9v11.6
		h1.3L602,598.4L602,598.4z"/>
</g>
</svg>
